<svg xmlns="http://www.w3.org/2000/svg" viewBox="0 0 195.67 57.59">
    <defs>
        <style>
            .cls-1 {
            fill: none;
            }

            .cls-2 {
            fill: #e9e9e9;
            }
        </style>
    </defs>
    <g id="Layer_2">
        <g id="Layer_1-2">
            <path class="cls-1"
                  d="M179,33.76c0,1.91,1.63,3.11,4.13,3.11,3.19,0,5.74-2,5.74-4.81V30.14l-5.46.38C180.55,30.71,179,31.84,179,33.76Z" />
            <path class="cls-1" d="M105,20.29c-3.14,0-5.45,2.3-5.69,5.63h11.22C110.42,22.51,108.2,20.29,105,20.29Z" />
            <path class="cls-1"
                  d="M157.11,20.86c-3.52,0-5.86,3.1-5.86,7.75s2.34,7.72,5.86,7.72,5.9-3,5.9-7.75S160.67,20.86,157.11,20.86Z" />
            <polygon class="cls-2" points="31.27 24.98 31.27 0 9.32 14.91 9.32 21.27 22.93 30.86 31.27 24.98" />
            <polygon class="cls-2" points="33.27 23.59 47.9 13.28 47.9 35.28 55.23 40.45 55.23 14.91 33.27 0 33.27 23.59" />
            <path class="cls-2"
                  d="M93.14,15.59H89.59a4,4,0,0,0-3.87,2.94L81,35.43h-.14l-4.71-16.9a4,4,0,0,0-3.86-2.94H68.59a.43.43,0,0,0-.4.57l8.73,25.15a.43.43,0,0,0,.4.29h7.14a.43.43,0,0,0,.4-.29l8.69-25.15A.43.43,0,0,0,93.14,15.59Z" />
            <path class="cls-2"
                  d="M134.68,26.6l-4.89-1.06c-2.34-.55-3.47-1.42-3.47-2.72,0-1.68,1.65-2.79,4.13-2.79s4.16,1.16,4.47,3a.42.42,0,0,0,.42.36h5.55a.43.43,0,0,0,.43-.46c-.35-4.7-4.55-7.78-10.78-7.78-6.59,0-10.88,3.21-10.88,8.1,0,3.8,2.52,6.33,7.41,7.44l4.8,1.08c2.36.57,3.26,1.28,3.26,2.62,0,1.71-1.68,2.77-4.42,2.77s-4.45-1.11-4.9-3.1a.43.43,0,0,0-.41-.33h-5.91a.42.42,0,0,0-.42.48c.58,4.74,4.82,7.84,11.45,7.84,6.8,0,11.46-3.33,11.46-8.39C142,29.79,139.9,27.78,134.68,26.6Z" />
            <path class="cls-2"
                  d="M159.4,15.29A8.63,8.63,0,0,0,151.32,20h-.14V16a.43.43,0,0,0-.43-.43H144.8a.42.42,0,0,0-.42.43V49.68a.42.42,0,0,0,.42.42h2.46a4,4,0,0,0,4-4V37.23h.15c1.41,3,4.32,4.68,8.07,4.68,6.52,0,10.58-5.06,10.58-13.33S166,15.29,159.4,15.29Zm-2.29,21c-3.52,0-5.86-3-5.86-7.72s2.34-7.75,5.86-7.75,5.9,3.05,5.9,7.72S160.67,36.33,157.11,36.33Z" />
            <path class="cls-2"
                  d="M184.62,15.15c-6.3,0-10.71,3.21-11.15,7.93a.43.43,0,0,0,.43.45h5.5a.43.43,0,0,0,.42-.31c.46-1.72,2.15-2.9,4.51-2.9,2.84,0,4.56,1.37,4.56,3.87v1.33a.42.42,0,0,1-.4.42l-6.09.38c-6.64.4-10.26,3.07-10.26,7.79s3.76,7.8,8.77,7.8c3.33,0,6.54-1.61,8-4.33H189a4,4,0,0,0,4,4h2.22a.43.43,0,0,0,.43-.43V23.77C195.67,18.57,191.3,15.15,184.62,15.15Zm4.27,16.91c0,2.83-2.55,4.81-5.74,4.81-2.5,0-4.13-1.2-4.13-3.11s1.53-3,4.41-3.24l5.46-.38Z" />
            <path class="cls-2"
                  d="M104.94,15.14c-7.63,0-12.5,5.29-12.5,13.56s4.85,13.35,12.76,13.35c5.89,0,10.37-2.91,11.57-7.36a.81.81,0,0,0-.77-1h-4.83a.89.89,0,0,0-.72.46c-.81,1.74-2.74,2.78-5.13,2.78a6,6,0,0,1-4.4-1.73,6.43,6.43,0,0,1-1.67-4.55v-.43H116.4a.8.8,0,0,0,.8-.8V28.07C117.2,20.15,112.43,15.14,104.94,15.14ZM99.32,25.92c.24-3.33,2.55-5.63,5.69-5.63s5.41,2.22,5.53,5.63Z" />
            <polygon class="cls-2"
                     points="34.27 25.51 24.2 32.61 24.2 57.59 46.15 42.68 46.15 33.88 46.15 17.14 34.27 25.51" />
            <polygon class="cls-2" points="21.2 32.08 9.32 23.71 0 17.14 0 42.68 21.95 57.59 21.95 32.61 21.2 32.08" />
        </g>
    </g>
</svg>
