<svg id="Layer_1" data-name="Layer 1" xmlns="http://www.w3.org/2000/svg"
     viewBox="0 0 426.73 157">
    <defs>
        <style>
            .cls-1 {
                fill: none;
                clip-rule: evenodd;
            }
            .cls-2 {
                clip-path: url(#clip-path);
            }
            .cls-3 {
                clip-path: url(#clip-path-2);
            }
            .cls-4 {
                clip-path: url(#clip-path-3);
            }
            .cls-5 {
                clip-path: url(#clip-path-4);
            }
            .cls-6 {
                clip-path: url(#clip-path-5);
            }
            .cls-7 {
                clip-path: url(#clip-path-6);
            }
            .cls-8 {
                clip-path: url(#clip-path-7);
            }
            .cls-9 {
                clip-path: url(#clip-path-8);
            }
            .cls-10 {
                clip-path: url(#clip-path-9);
            }
            .cls-11 {
                clip-path: url(#clip-path-10);
            }
            .cls-12 {
                clip-path: url(#clip-path-11);
            }
            .cls-13 {
                clip-path: url(#clip-path-12);
            }
            .cls-14 {
                clip-path: url(#clip-path-13);
            }
            .cls-15 {
                clip-path: url(#clip-path-14);
            }
            .cls-16 {
                clip-path: url(#clip-path-15);
            }
            .cls-17 {
                clip-path: url(#clip-path-16);
            }
            .cls-18 {
                clip-path: url(#clip-path-17);
            }
            .cls-19 {
                clip-path: url(#clip-path-18);
            }
            .cls-20 {
                clip-path: url(#clip-path-19);
            }
            .cls-21 {
                clip-path: url(#clip-path-20);
            }
            .cls-22 {
                clip-path: url(#clip-path-21);
            }
            .cls-23 {
                clip-path: url(#clip-path-22);
            }
            .cls-24 {
                clip-path: url(#clip-path-23);
            }
            .cls-25 {
                clip-path: url(#clip-path-24);
            }
            .cls-26 {
                clip-path: url(#clip-path-25);
            }
            .cls-27 {
                fill: #ff9d4b;
            }
            .cls-28 {
                fill: url(#linear-gradient);
            }
            .cls-29 {
                fill: #1a7db6;
            }
            .cls-30 {
                fill: url(#linear-gradient-2);
            }
            .cls-31 {
                fill: #fff;
            }
        </style>
        <clipPath id="clip-path">
            <polygon class="cls-1"
                     points="-126.52 -1487.49 133.48 -1388.16 133.48 -1648.82 -126.52 -1748.16 -126.52 -1487.49" />
        </clipPath>
        <clipPath id="clip-path-2">
            <path class="cls-1"
                  d="M-1.82-1672.51a6.31,6.31,0,0,1-6.3-6.32,6.31,6.31,0,0,1,6.3-6.33,6.31,6.31,0,0,1,6.3,6.33,6.31,6.31,0,0,1-6.3,6.32" />
        </clipPath>
        <clipPath id="clip-path-3">
            <path class="cls-1"
                  d="M-1.82-1616a6.31,6.31,0,0,1-6.3-6.33,6.3,6.3,0,0,1,6.3-6.31,6.3,6.3,0,0,1,6.3,6.31,6.31,6.31,0,0,1-6.3,6.33" />
        </clipPath>
        <clipPath id="clip-path-4">
            <path class="cls-1"
                  d="M-1.82-1559.57a6.31,6.31,0,0,1-6.3-6.32,6.3,6.3,0,0,1,6.3-6.32,6.3,6.3,0,0,1,6.3,6.32,6.31,6.31,0,0,1-6.3,6.32" />
        </clipPath>
        <clipPath id="clip-path-5">
            <path class="cls-1"
                  d="M-1.82-1504.78a6.32,6.32,0,0,1-6.3-6.33,6.31,6.31,0,0,1,6.3-6.32,6.31,6.31,0,0,1,6.3,6.32,6.32,6.32,0,0,1-6.3,6.33" />
        </clipPath>
        <clipPath id="clip-path-6">
            <path class="cls-1"
                  d="M-1.82-1446.63a6.31,6.31,0,0,1-6.3-6.32,6.31,6.31,0,0,1,6.3-6.32,6.31,6.31,0,0,1,6.3,6.32,6.31,6.31,0,0,1-6.3,6.32" />
        </clipPath>
        <clipPath id="clip-path-7">
            <path class="cls-1"
                  d="M-1.82-1390.16a6.31,6.31,0,0,1-6.3-6.32,6.31,6.31,0,0,1,6.3-6.32,6.31,6.31,0,0,1,6.3,6.32,6.31,6.31,0,0,1-6.3,6.32" />
        </clipPath>
        <clipPath id="clip-path-8">
            <path class="cls-1"
                  d="M-55.58-1672.51a6.31,6.31,0,0,1-6.3-6.32,6.31,6.31,0,0,1,6.3-6.33,6.31,6.31,0,0,1,6.3,6.33,6.31,6.31,0,0,1-6.3,6.32" />
        </clipPath>
        <clipPath id="clip-path-9">
            <path class="cls-1"
                  d="M-55.58-1616a6.31,6.31,0,0,1-6.3-6.33,6.3,6.3,0,0,1,6.3-6.31,6.3,6.3,0,0,1,6.3,6.31,6.31,6.31,0,0,1-6.3,6.33" />
        </clipPath>
        <clipPath id="clip-path-10">
            <path class="cls-1"
                  d="M-55.58-1559.57a6.31,6.31,0,0,1-6.3-6.32,6.3,6.3,0,0,1,6.3-6.32,6.3,6.3,0,0,1,6.3,6.32,6.31,6.31,0,0,1-6.3,6.32" />
        </clipPath>
        <clipPath id="clip-path-11">
            <path class="cls-1"
                  d="M-55.58-1504.78a6.32,6.32,0,0,1-6.3-6.33,6.31,6.31,0,0,1,6.3-6.32,6.31,6.31,0,0,1,6.3,6.32,6.32,6.32,0,0,1-6.3,6.33" />
        </clipPath>
        <clipPath id="clip-path-12">
            <path class="cls-1"
                  d="M-55.58-1446.63a6.31,6.31,0,0,1-6.3-6.32,6.31,6.31,0,0,1,6.3-6.32,6.31,6.31,0,0,1,6.3,6.32,6.31,6.31,0,0,1-6.3,6.32" />
        </clipPath>
        <clipPath id="clip-path-13">
            <path class="cls-1"
                  d="M-55.58-1390.16a6.31,6.31,0,0,1-6.3-6.32,6.31,6.31,0,0,1,6.3-6.32,6.31,6.31,0,0,1,6.3,6.32,6.31,6.31,0,0,1-6.3,6.32" />
        </clipPath>
        <clipPath id="clip-path-14">
            <path class="cls-1"
                  d="M-106-1672.51a6.31,6.31,0,0,1-6.3-6.32,6.31,6.31,0,0,1,6.3-6.33,6.31,6.31,0,0,1,6.3,6.33,6.31,6.31,0,0,1-6.3,6.32" />
        </clipPath>
        <clipPath id="clip-path-15">
            <path class="cls-1"
                  d="M-106-1616a6.31,6.31,0,0,1-6.3-6.33,6.3,6.3,0,0,1,6.3-6.31,6.3,6.3,0,0,1,6.3,6.31A6.31,6.31,0,0,1-106-1616" />
        </clipPath>
        <clipPath id="clip-path-16">
            <path class="cls-1"
                  d="M-106-1559.57a6.31,6.31,0,0,1-6.3-6.32,6.3,6.3,0,0,1,6.3-6.32,6.3,6.3,0,0,1,6.3,6.32,6.31,6.31,0,0,1-6.3,6.32" />
        </clipPath>
        <clipPath id="clip-path-17">
            <path class="cls-1"
                  d="M-106-1504.78a6.32,6.32,0,0,1-6.3-6.33,6.31,6.31,0,0,1,6.3-6.32,6.31,6.31,0,0,1,6.3,6.32,6.32,6.32,0,0,1-6.3,6.33" />
        </clipPath>
        <clipPath id="clip-path-18">
            <path class="cls-1"
                  d="M-106-1446.63a6.31,6.31,0,0,1-6.3-6.32,6.31,6.31,0,0,1,6.3-6.32,6.31,6.31,0,0,1,6.3,6.32,6.31,6.31,0,0,1-6.3,6.32" />
        </clipPath>
        <clipPath id="clip-path-19">
            <path class="cls-1"
                  d="M-106-1390.16a6.31,6.31,0,0,1-6.3-6.32,6.31,6.31,0,0,1,6.3-6.32,6.31,6.31,0,0,1,6.3,6.32,6.31,6.31,0,0,1-6.3,6.32" />
        </clipPath>
        <clipPath id="clip-path-20">
            <path class="cls-1"
                  d="M-157.22-1672.51a6.31,6.31,0,0,1-6.3-6.32,6.31,6.31,0,0,1,6.3-6.33,6.31,6.31,0,0,1,6.3,6.33,6.31,6.31,0,0,1-6.3,6.32" />
        </clipPath>
        <clipPath id="clip-path-21">
            <path class="cls-1"
                  d="M-157.22-1616a6.31,6.31,0,0,1-6.3-6.33,6.3,6.3,0,0,1,6.3-6.31,6.3,6.3,0,0,1,6.3,6.31,6.31,6.31,0,0,1-6.3,6.33" />
        </clipPath>
        <clipPath id="clip-path-22">
            <path class="cls-1"
                  d="M-157.22-1559.57a6.31,6.31,0,0,1-6.3-6.32,6.3,6.3,0,0,1,6.3-6.32,6.3,6.3,0,0,1,6.3,6.32,6.31,6.31,0,0,1-6.3,6.32" />
        </clipPath>
        <clipPath id="clip-path-23">
            <path class="cls-1"
                  d="M-157.22-1504.78a6.32,6.32,0,0,1-6.3-6.33,6.31,6.31,0,0,1,6.3-6.32,6.31,6.31,0,0,1,6.3,6.32,6.32,6.32,0,0,1-6.3,6.33" />
        </clipPath>
        <clipPath id="clip-path-24">
            <path class="cls-1"
                  d="M-157.22-1446.63a6.31,6.31,0,0,1-6.3-6.32,6.31,6.31,0,0,1,6.3-6.32,6.31,6.31,0,0,1,6.3,6.32,6.31,6.31,0,0,1-6.3,6.32" />
        </clipPath>
        <clipPath id="clip-path-25">
            <path class="cls-1"
                  d="M-157.22-1390.16a6.31,6.31,0,0,1-6.3-6.32,6.31,6.31,0,0,1,6.3-6.32,6.31,6.31,0,0,1,6.3,6.32,6.31,6.31,0,0,1-6.3,6.32" />
        </clipPath>
        <linearGradient id="linear-gradient" x1="838.35" y1="43.03" x2="793.28" y2="71.6"
                        gradientTransform="matrix(-1, 0, 0, 1, 920.21, 0)" gradientUnits="userSpaceOnUse">
            <stop offset="0.01" stop-color="#c6783e" />
            <stop offset="0.54" stop-color="#ff9750" />
        </linearGradient>
        <linearGradient id="linear-gradient-2" x1="51.41" y1="102.76" x2="-24.85" y2="61.2" gradientUnits="userSpaceOnUse">
            <stop offset="0" stop-color="#005a8e" />
            <stop offset="0.54" stop-color="#1a7db6" />
        </linearGradient>
    </defs>
    <polygon class="cls-27"
             points="75.53 8.2 24.79 42.66 24.79 101.98 75.53 66.22 126.27 101.98 126.27 42.66 75.53 8.2" />
    <polygon class="cls-28" points="75.53 66.22 75.53 8.2 126.27 42.66 126.27 101.98 75.53 66.22" />
    <polygon class="cls-29"
             points="55.77 80.19 5.03 44.42 5.03 103.74 55.77 138.2 106.51 103.74 106.51 44.42 55.77 80.19" />
    <polygon class="cls-30" points="55.77 80.19 55.77 138.2 5.03 103.74 5.03 44.42 55.77 80.19" />
    <path class="cls-31"
          d="M186.09,100.33H171a.91.91,0,0,1-.85-.61L151.62,46.43a.9.9,0,0,1,.85-1.2h7.89a8.49,8.49,0,0,1,8.19,6.22l10,35.82h.3l9.93-35.81A8.5,8.5,0,0,1,197,45.23h7.54a.9.9,0,0,1,.85,1.2L187,99.72A.92.92,0,0,1,186.09,100.33Z" />
    <path class="cls-31"
          d="M283.73,44.28c13.18,0,22.09,6.53,22.82,16.49a.91.91,0,0,1-.9,1H293.88A.89.89,0,0,1,293,61c-.65-3.92-4.2-6.36-9.47-6.36s-8.76,2.35-8.76,5.9c0,2.76,2.4,4.61,7.35,5.76l10.36,2.25c11.06,2.5,15.46,6.76,15.46,15,0,10.71-9.85,17.77-24.26,17.77-14.05,0-23-6.56-24.28-16.6a.92.92,0,0,1,.9-1h12.52a.91.91,0,0,1,.88.69c.95,4.22,4.63,6.57,10.38,6.57s9.35-2.25,9.35-5.86c0-2.85-1.9-4.35-6.9-5.55l-10.16-2.3C266,74.86,260.66,69.5,260.66,61.44,260.66,51.09,269.76,44.28,283.73,44.28Z" />
    <path class="cls-31"
          d="M367.47,72.75c0,17.52-8.6,28.23-22.41,28.23-8,0-14.11-3.66-17.12-9.91h-.3v18.77a8.49,8.49,0,0,1-8.5,8.5h-5.21a.9.9,0,0,1-.9-.9V46.13a.9.9,0,0,1,.9-.9h12.61a.9.9,0,0,1,.9.9v8.51h.3c2.9-6.21,9.36-10.06,17.12-10.06C358.82,44.58,367.47,55.24,367.47,72.75Zm-15,0c0-9.9-4.95-16.36-12.51-16.36S327.59,63,327.59,72.8s5,16.37,12.41,16.37S352.51,82.76,352.51,72.75Z" />
    <path class="cls-31"
          d="M371.86,84.46c0-10,7.66-15.66,21.72-16.51l12.91-.8a.9.9,0,0,0,.85-.9v-2.8c0-5.31-3.65-8.21-9.66-8.21-5,0-8.59,2.5-9.56,6.15a.94.94,0,0,1-.9.66H375.58a.89.89,0,0,1-.9-1c.92-10,10.26-16.8,23.6-16.8,14.16,0,23.42,7.26,23.42,18.27V99.43a.9.9,0,0,1-.9.9h-4.7a8.51,8.51,0,0,1-8.51-8.51h-.3c-3,5.75-9.81,9.16-16.86,9.16C379.82,101,371.86,94.32,371.86,84.46Zm35.48-4.35v-4l-11.56.8c-6.11.4-9.36,2.8-9.36,6.85s3.46,6.61,8.76,6.61C401.93,90.32,407.34,86.11,407.34,80.11Z" />
    <path class="cls-31"
          d="M229.48,44.28C213.32,44.28,203,55.49,203,73s10.26,28.27,27,28.27c12.47,0,22-6.16,24.51-15.6a1.71,1.71,0,0,0-1.64-2.17H242.68a1.87,1.87,0,0,0-1.53,1c-1.71,3.67-5.8,5.88-10.87,5.88A12.63,12.63,0,0,1,221,86.7a13.58,13.58,0,0,1-3.54-9.64v-.9h36.33a1.7,1.7,0,0,0,1.7-1.7V71.65C255.45,54.89,245.34,44.28,229.48,44.28ZM217.57,67.1c.51-7.06,5.4-11.91,12.07-11.91s11.45,4.7,11.7,11.91Z" />
    <path class="cls-31"
          d="M188.47,127c-.55-2.91-2.64-4.83-6.08-4.83-4.36,0-6.81,3.25-6.81,9.28s2.47,9.42,6.81,9.42c3.3,0,5.47-1.61,6.08-4.64H196c-.67,6.86-5.67,11.28-13.64,11.28-9.56,0-15-5.78-15-16.06s5.39-15.92,15-15.92c8.11,0,13,4.5,13.64,11.47Z" />
    <path class="cls-31" d="M199.21,104.5h0a8.08,8.08,0,0,1,8.08,8.08v34.26h0a8.08,8.08,0,0,1-8.08-8.08Z" />
    <path class="cls-31"
          d="M210.18,131.5c0-9.92,5.75-16,15.09-16s15.09,6,15.09,16-5.67,16-15.09,16S210.18,141.53,210.18,131.5Zm21.87,0c0-5.89-2.5-9.36-6.78-9.36s-6.78,3.47-6.78,9.36,2.44,9.4,6.78,9.4S232.05,137.45,232.05,131.5Z" />
    <path class="cls-31"
          d="M271.83,146.84H264v-4.92h-.5c-1.45,3.56-4.31,5.59-8.95,5.59-6.61,0-10.72-4.22-10.72-11.34v-20h8.08v17.9c0,4.22,1.92,6.39,5.64,6.39,4,0,6.2-2.53,6.2-6.61V116.19h8.08Z" />
    <path class="cls-31"
          d="M274.62,131.48c0-9.76,4.78-15.79,12.47-15.79,4.14,0,7.56,2,9.15,5.39h.47V104.5h0a8.08,8.08,0,0,1,8.08,8.08v34.26h-3A4.81,4.81,0,0,1,297,142h-.5c-1.64,3.31-5.11,5.28-9.37,5.28C279.37,147.31,274.62,141.26,274.62,131.48Zm8.31,0c0,5.67,2.58,9.06,6.91,9.06s7-3.42,7-9-2.64-9.06-7-9.06S282.93,125.89,282.93,131.5Z" />
</svg>
