<?xml version="1.0" encoding="UTF-8" standalone="no"?><!DOCTYPE svg PUBLIC "-//W3C//DTD SVG 1.1//EN" "http://www.w3.org/Graphics/SVG/1.1/DTD/svg11.dtd"><!-- Generated by graphviz version 2.40.1 (20161225.0304)
 --><!-- Title: levenshtein_dfa Pages: 1 --><svg xmlns="http://www.w3.org/2000/svg" xmlns:xlink="http://www.w3.org/1999/xlink" width="333pt" height="488pt" viewBox="0.00 0.00 333.00 488.00">
<g id="graph0" class="graph" transform="scale(1 1) rotate(0) translate(4 484)">
<title>levenshtein_dfa</title>
<polygon fill="#ffffff" stroke="transparent" points="-4,4 -4,-484 329,-484 329,4 -4,4"/>
<!-- 0 -->
<g id="node1" class="node">
<title>0</title>
<ellipse fill="none" stroke="#000000" cx="211" cy="-462" rx="18" ry="18"/>
<text text-anchor="middle" x="211" y="-457.8" font-family="Helvetica,Arial,sans-serif" font-size="14.00" fill="#000000">0</text>
</g>
<!-- 1 -->
<g id="node2" class="node">
<title>1</title>
<ellipse fill="none" stroke="#000000" cx="157" cy="-373.2" rx="18" ry="18"/>
<text text-anchor="middle" x="157" y="-369" font-family="Helvetica,Arial,sans-serif" font-size="14.00" fill="#000000">1</text>
</g>
<!-- 0&#45;&gt;1 -->
<g id="edge1" class="edge">
<title>0-&gt;1</title>
<path fill="none" stroke="#000000" d="M201.5939,-446.5322C193.3592,-432.9906 181.2571,-413.0894 171.7374,-397.4348"/>
<polygon fill="#000000" stroke="#000000" points="174.6658,-395.5142 166.4795,-388.7885 168.6849,-399.1513 174.6658,-395.5142"/>
<text text-anchor="middle" x="189.9453" y="-413.4" font-family="Helvetica,Arial,sans-serif" font-size="14.00" fill="#000000">f</text>
</g>
<!-- 2 -->
<g id="node3" class="node">
<title>2</title>
<ellipse fill="none" stroke="#000000" cx="211" cy="-373.2" rx="18" ry="18"/>
<text text-anchor="middle" x="211" y="-369" font-family="Helvetica,Arial,sans-serif" font-size="14.00" fill="#000000">2</text>
</g>
<!-- 0&#45;&gt;2 -->
<g id="edge2" class="edge">
<title>0-&gt;2</title>
<path fill="none" stroke="#000000" d="M211,-443.6006C211,-431.4949 211,-415.4076 211,-401.6674"/>
<polygon fill="#000000" stroke="#000000" points="214.5001,-401.272 211,-391.272 207.5001,-401.2721 214.5001,-401.272"/>
<text text-anchor="middle" x="214.8913" y="-413.4" font-family="Helvetica,Arial,sans-serif" font-size="14.00" fill="#000000">o</text>
</g>
<!-- 3 -->
<g id="node4" class="node">
<title>3</title>
<ellipse fill="none" stroke="#000000" cx="265" cy="-373.2" rx="18" ry="18"/>
<text text-anchor="middle" x="265" y="-369" font-family="Helvetica,Arial,sans-serif" font-size="14.00" fill="#000000">3</text>
</g>
<!-- 0&#45;&gt;3 -->
<g id="edge3" class="edge">
<title>0-&gt;3</title>
<path fill="none" stroke="#000000" d="M220.4061,-446.5322C228.6408,-432.9906 240.7429,-413.0894 250.2626,-397.4348"/>
<polygon fill="#000000" stroke="#000000" points="253.3151,-399.1513 255.5205,-388.7885 247.3342,-395.5142 253.3151,-399.1513"/>
<text text-anchor="middle" x="244.7223" y="-413.4" font-family="Helvetica,Arial,sans-serif" font-size="14.00" fill="#000000">*</text>
</g>
<!-- 4 -->
<g id="node5" class="node">
<title>4</title>
<ellipse fill="none" stroke="#000000" cx="157" cy="-284.4" rx="18" ry="18"/>
<text text-anchor="middle" x="157" y="-280.2" font-family="Helvetica,Arial,sans-serif" font-size="14.00" fill="#000000">4</text>
</g>
<!-- 1&#45;&gt;4 -->
<g id="edge4" class="edge">
<title>1-&gt;4</title>
<path fill="none" stroke="#000000" d="M157,-354.8006C157,-342.6949 157,-326.6076 157,-312.8674"/>
<polygon fill="#000000" stroke="#000000" points="160.5001,-312.472 157,-302.472 153.5001,-312.4721 160.5001,-312.472"/>
<text text-anchor="middle" x="158.9453" y="-324.6" font-family="Helvetica,Arial,sans-serif" font-size="14.00" fill="#000000">f</text>
</g>
<!-- 1&#45;&gt;4 -->
<g id="edge6" class="edge">
<title>1-&gt;4</title>
<path fill="none" stroke="#000000" d="M156.1231,-354.8902C155.8898,-349.221 155.6708,-342.9535 155.5554,-337.2 155.4057,-329.7348 155.4057,-327.8652 155.5554,-320.4 155.6041,-317.9728 155.6712,-315.454 155.7501,-312.9273"/>
<polygon fill="#000000" stroke="#000000" points="159.2558,-312.8309 156.1231,-302.7098 152.2605,-312.5755 159.2558,-312.8309"/>
<text text-anchor="middle" x="158.7223" y="-324.6" font-family="Helvetica,Arial,sans-serif" font-size="14.00" fill="#000000">*</text>
</g>
<!-- 5 -->
<g id="node6" class="node">
<title>5</title>
<ellipse fill="none" stroke="#000000" cx="103" cy="-284.4" rx="18" ry="18"/>
<text text-anchor="middle" x="103" y="-280.2" font-family="Helvetica,Arial,sans-serif" font-size="14.00" fill="#000000">5</text>
</g>
<!-- 1&#45;&gt;5 -->
<g id="edge5" class="edge">
<title>1-&gt;5</title>
<path fill="none" stroke="#000000" d="M147.5939,-357.7322C139.3592,-344.1906 127.2571,-324.2894 117.7374,-308.6348"/>
<polygon fill="#000000" stroke="#000000" points="120.6658,-306.7142 112.4795,-299.9885 114.6849,-310.3513 120.6658,-306.7142"/>
<text text-anchor="middle" x="138.8913" y="-324.6" font-family="Helvetica,Arial,sans-serif" font-size="14.00" fill="#000000">o</text>
</g>
<!-- 6 -->
<g id="node7" class="node">
<title>6</title>
<ellipse fill="none" stroke="#000000" cx="307" cy="-284.4" rx="18" ry="18"/>
<text text-anchor="middle" x="307" y="-280.2" font-family="Helvetica,Arial,sans-serif" font-size="14.00" fill="#000000">6</text>
</g>
<!-- 2&#45;&gt;6 -->
<g id="edge7" class="edge">
<title>2-&gt;6</title>
<path fill="none" stroke="#000000" d="M224.3484,-360.8527C240.3968,-346.0079 267.511,-320.9274 286.2858,-303.5607"/>
<polygon fill="#000000" stroke="#000000" points="288.8006,-306.0022 293.765,-296.6424 284.0473,-300.8635 288.8006,-306.0022"/>
<text text-anchor="middle" x="268.9453" y="-324.6" font-family="Helvetica,Arial,sans-serif" font-size="14.00" fill="#000000">f</text>
</g>
<!-- 7 -->
<g id="node8" class="node">
<title>7</title>
<ellipse fill="none" stroke="#000000" cx="190" cy="-195.6" rx="18" ry="18"/>
<text text-anchor="middle" x="190" y="-191.4" font-family="Helvetica,Arial,sans-serif" font-size="14.00" fill="#000000">7</text>
</g>
<!-- 2&#45;&gt;7 -->
<g id="edge8" class="edge">
<title>2-&gt;7</title>
<path fill="none" stroke="#000000" d="M208.8708,-355.1934C205.2075,-324.212 197.6865,-260.606 193.3267,-223.7346"/>
<polygon fill="#000000" stroke="#000000" points="196.7849,-223.1741 192.1348,-213.6543 189.8333,-223.9961 196.7849,-223.1741"/>
<text text-anchor="middle" x="205.8913" y="-280.2" font-family="Helvetica,Arial,sans-serif" font-size="14.00" fill="#000000">o</text>
</g>
<!-- 3&#45;&gt;6 -->
<g id="edge9" class="edge">
<title>3-&gt;6</title>
<path fill="none" stroke="#000000" d="M272.7034,-356.9127C278.881,-343.8515 287.6665,-325.2765 294.7989,-310.1966"/>
<polygon fill="#000000" stroke="#000000" points="298.0914,-311.4211 299.2032,-300.8848 291.7635,-308.4281 298.0914,-311.4211"/>
<text text-anchor="middle" x="290.9453" y="-324.6" font-family="Helvetica,Arial,sans-serif" font-size="14.00" fill="#000000">f</text>
</g>
<!-- 8 -->
<g id="node9" class="node">
<title>8</title>
<ellipse fill="none" stroke="#000000" cx="263" cy="-195.6" rx="18" ry="18"/>
<text text-anchor="middle" x="263" y="-191.4" font-family="Helvetica,Arial,sans-serif" font-size="14.00" fill="#000000">8</text>
</g>
<!-- 3&#45;&gt;8 -->
<g id="edge10" class="edge">
<title>3-&gt;8</title>
<path fill="none" stroke="#000000" d="M264.7972,-355.1934C264.4483,-324.212 263.732,-260.606 263.3168,-223.7346"/>
<polygon fill="#000000" stroke="#000000" points="266.8158,-223.6142 263.2033,-213.6543 259.8162,-223.6931 266.8158,-223.6142"/>
<text text-anchor="middle" x="267.8913" y="-280.2" font-family="Helvetica,Arial,sans-serif" font-size="14.00" fill="#000000">o</text>
</g>
<!-- 4&#45;&gt;7 -->
<g id="edge11" class="edge">
<title>4-&gt;7</title>
<path fill="none" stroke="#000000" d="M163.3627,-267.2785C168.1106,-254.5023 174.6869,-236.8062 180.1171,-222.194"/>
<polygon fill="#000000" stroke="#000000" points="183.4541,-223.2619 183.6568,-212.669 176.8925,-220.8234 183.4541,-223.2619"/>
<text text-anchor="middle" x="180.8913" y="-235.8" font-family="Helvetica,Arial,sans-serif" font-size="14.00" fill="#000000">o</text>
</g>
<!-- 5&#45;&gt;7 -->
<g id="edge14" class="edge">
<title>5-&gt;7</title>
<path fill="none" stroke="#000000" d="M115.8371,-271.2973C130.1833,-256.6543 153.5826,-232.7709 170.2601,-215.7483"/>
<polygon fill="#000000" stroke="#000000" points="172.8948,-218.0603 177.393,-208.4678 167.8946,-213.1615 172.8948,-218.0603"/>
<text text-anchor="middle" x="157.7223" y="-235.8" font-family="Helvetica,Arial,sans-serif" font-size="14.00" fill="#000000">*</text>
</g>
<!-- 9 -->
<g id="node10" class="node">
<title>9</title>
<ellipse fill="#d3d3d3" stroke="#000000" cx="60" cy="-195.6" rx="18" ry="18"/>
<text text-anchor="middle" x="60" y="-191.4" font-family="Helvetica,Arial,sans-serif" font-size="14.00" fill="#000000">9(1)</text>
</g>
<!-- 5&#45;&gt;9 -->
<g id="edge12" class="edge">
<title>5-&gt;9</title>
<path fill="none" stroke="#000000" d="M95.1131,-268.1127C88.7885,-255.0515 79.7938,-236.4765 72.4916,-221.3966"/>
<polygon fill="#000000" stroke="#000000" points="75.4909,-219.5597 67.9825,-212.0848 69.1907,-222.6105 75.4909,-219.5597"/>
<text text-anchor="middle" x="89.8913" y="-235.8" font-family="Helvetica,Arial,sans-serif" font-size="14.00" fill="#000000">o</text>
</g>
<!-- 10 -->
<g id="node11" class="node">
<title>10</title>
<ellipse fill="#d3d3d3" stroke="#000000" cx="126" cy="-195.6" rx="18" ry="18"/>
<text text-anchor="middle" x="126" y="-191.4" font-family="Helvetica,Arial,sans-serif" font-size="14.00" fill="#000000">10(1)</text>
</g>
<!-- 5&#45;&gt;10 -->
<g id="edge13" class="edge">
<title>5-&gt;10</title>
<path fill="none" stroke="#000000" d="M107.5441,-266.856C110.7887,-254.3287 115.2168,-237.2326 118.9222,-222.9264"/>
<polygon fill="#000000" stroke="#000000" points="122.3462,-223.6657 121.4654,-213.1076 115.5698,-221.9105 122.3462,-223.6657"/>
<text text-anchor="middle" x="120.8913" y="-235.8" font-family="Helvetica,Arial,sans-serif" font-size="14.00" fill="#000000">d</text>
</g>
<!-- 6&#45;&gt;8 -->
<g id="edge15" class="edge">
<title>6-&gt;8</title>
<path fill="none" stroke="#000000" d="M298.9297,-268.1127C292.4172,-254.9694 283.1382,-236.2426 275.6413,-221.1125"/>
<polygon fill="#000000" stroke="#000000" points="278.5951,-219.1904 271.0191,-211.784 272.3229,-222.2984 278.5951,-219.1904"/>
<text text-anchor="middle" x="291.8913" y="-235.8" font-family="Helvetica,Arial,sans-serif" font-size="14.00" fill="#000000">o</text>
</g>
<!-- 11 -->
<g id="node12" class="node">
<title>11</title>
<ellipse fill="none" stroke="#000000" cx="170" cy="-106.8" rx="18" ry="18"/>
<text text-anchor="middle" x="170" y="-102.6" font-family="Helvetica,Arial,sans-serif" font-size="14.00" fill="#000000">11</text>
</g>
<!-- 7&#45;&gt;11 -->
<g id="edge16" class="edge">
<title>7-&gt;11</title>
<path fill="none" stroke="#000000" d="M185.9527,-177.63C183.1694,-165.2722 179.4189,-148.6197 176.2537,-134.5662"/>
<polygon fill="#000000" stroke="#000000" points="179.5848,-133.4268 173.973,-124.4402 172.7558,-134.9649 179.5848,-133.4268"/>
<text text-anchor="middle" x="184.8913" y="-147" font-family="Helvetica,Arial,sans-serif" font-size="14.00" fill="#000000">o</text>
</g>
<!-- 12 -->
<g id="node13" class="node">
<title>12</title>
<ellipse fill="#d3d3d3" stroke="#000000" cx="113" cy="-18" rx="18" ry="18"/>
<text text-anchor="middle" x="113" y="-13.8" font-family="Helvetica,Arial,sans-serif" font-size="14.00" fill="#000000">12(1)</text>
</g>
<!-- 7&#45;&gt;12 -->
<g id="edge17" class="edge">
<title>7-&gt;12</title>
<path fill="none" stroke="#000000" d="M195.7305,-178.1814C201.8942,-156.377 209.2729,-118.3097 197,-88.8 185.9488,-62.2279 158.7426,-42.3831 138.2647,-30.5667"/>
<polygon fill="#000000" stroke="#000000" points="139.8619,-27.4509 129.4116,-25.7072 136.4936,-33.5872 139.8619,-27.4509"/>
<text text-anchor="middle" x="206.8913" y="-102.6" font-family="Helvetica,Arial,sans-serif" font-size="14.00" fill="#000000">d</text>
</g>
<!-- 8&#45;&gt;11 -->
<g id="edge18" class="edge">
<title>8-&gt;11</title>
<path fill="none" stroke="#000000" d="M249.6754,-182.8771C234.3441,-168.2382 208.9734,-144.0133 190.9836,-126.8359"/>
<polygon fill="#000000" stroke="#000000" points="192.9495,-123.8738 183.2999,-119.4993 188.1154,-128.9366 192.9495,-123.8738"/>
<text text-anchor="middle" x="227.8913" y="-147" font-family="Helvetica,Arial,sans-serif" font-size="14.00" fill="#000000">o</text>
</g>
<!-- 13 -->
<g id="node14" class="node">
<title>13</title>
<ellipse fill="#d3d3d3" stroke="#000000" cx="18" cy="-106.8" rx="18" ry="18"/>
<text text-anchor="middle" x="18" y="-102.6" font-family="Helvetica,Arial,sans-serif" font-size="14.00" fill="#000000">13(1)</text>
</g>
<!-- 9&#45;&gt;13 -->
<g id="edge19" class="edge">
<title>9-&gt;13</title>
<path fill="none" stroke="#000000" d="M44.2356,-186.804C34.7839,-180.5699 23.5878,-171.2526 18.2174,-159.6 14.7103,-151.9903 13.6799,-143.0834 13.8048,-134.7757"/>
<polygon fill="#000000" stroke="#000000" points="17.3023,-134.9283 14.4812,-124.716 10.3181,-134.4586 17.3023,-134.9283"/>
<text text-anchor="middle" x="22.8913" y="-147" font-family="Helvetica,Arial,sans-serif" font-size="14.00" fill="#000000">o</text>
</g>
<!-- 9&#45;&gt;13 -->
<g id="edge21" class="edge">
<title>9-&gt;13</title>
<path fill="none" stroke="#000000" d="M52.2966,-179.3127C46.119,-166.2515 37.3335,-147.6765 30.2011,-132.5966"/>
<polygon fill="#000000" stroke="#000000" points="33.2365,-130.8281 25.7968,-123.2848 26.9086,-133.8211 33.2365,-130.8281"/>
<text text-anchor="middle" x="45.7223" y="-147" font-family="Helvetica,Arial,sans-serif" font-size="14.00" fill="#000000">*</text>
</g>
<!-- 14 -->
<g id="node15" class="node">
<title>14</title>
<ellipse fill="#d3d3d3" stroke="#000000" cx="72" cy="-106.8" rx="18" ry="18"/>
<text text-anchor="middle" x="72" y="-102.6" font-family="Helvetica,Arial,sans-serif" font-size="14.00" fill="#000000">14(0)</text>
</g>
<!-- 9&#45;&gt;14 -->
<g id="edge20" class="edge">
<title>9-&gt;14</title>
<path fill="none" stroke="#000000" d="M62.4284,-177.63C64.0874,-165.353 66.3193,-148.8372 68.2105,-134.8421"/>
<polygon fill="#000000" stroke="#000000" points="71.7044,-135.1219 69.5752,-124.7433 64.7675,-134.1845 71.7044,-135.1219"/>
<text text-anchor="middle" x="71.8913" y="-147" font-family="Helvetica,Arial,sans-serif" font-size="14.00" fill="#000000">d</text>
</g>
<!-- 10&#45;&gt;11 -->
<g id="edge22" class="edge">
<title>10-&gt;11</title>
<path fill="none" stroke="#000000" d="M134.0703,-179.3127C140.5828,-166.1694 149.8618,-147.4426 157.3587,-132.3125"/>
<polygon fill="#000000" stroke="#000000" points="160.6771,-133.4984 161.9809,-122.984 154.4049,-130.3904 160.6771,-133.4984"/>
<text text-anchor="middle" x="155.8913" y="-147" font-family="Helvetica,Arial,sans-serif" font-size="14.00" fill="#000000">o</text>
</g>
<!-- 10&#45;&gt;12 -->
<g id="edge23" class="edge">
<title>10-&gt;12</title>
<path fill="none" stroke="#000000" d="M124.6819,-177.5934C122.4142,-146.612 117.7583,-83.006 115.0594,-46.1346"/>
<polygon fill="#000000" stroke="#000000" points="118.5423,-45.772 114.3215,-36.0543 111.561,-46.2831 118.5423,-45.772"/>
<text text-anchor="middle" x="124.8913" y="-102.6" font-family="Helvetica,Arial,sans-serif" font-size="14.00" fill="#000000">d</text>
</g>
<!-- 11&#45;&gt;12 -->
<g id="edge24" class="edge">
<title>11-&gt;12</title>
<path fill="none" stroke="#000000" d="M161.5849,-90.7772C155.8346,-80.1448 147.859,-65.9928 140,-54 137.0775,-49.5402 133.7942,-44.8997 130.5502,-40.4917"/>
<polygon fill="#000000" stroke="#000000" points="133.2767,-38.294 124.4657,-32.4105 127.6846,-42.5045 133.2767,-38.294"/>
<text text-anchor="middle" x="153.8913" y="-58.2" font-family="Helvetica,Arial,sans-serif" font-size="14.00" fill="#000000">d</text>
</g>
<!-- 13&#45;&gt;12 -->
<g id="edge25" class="edge">
<title>13-&gt;12</title>
<path fill="none" stroke="#000000" d="M29.0516,-92.0851C37.7254,-81.0086 50.4346,-65.7741 63.2174,-54 71.136,-46.7062 80.5495,-39.5675 89.0481,-33.5954"/>
<polygon fill="#000000" stroke="#000000" points="91.192,-36.3695 97.4722,-27.8367 87.2416,-30.5907 91.192,-36.3695"/>
<text text-anchor="middle" x="67.8913" y="-58.2" font-family="Helvetica,Arial,sans-serif" font-size="14.00" fill="#000000">d</text>
</g>
<!-- 14&#45;&gt;12 -->
<g id="edge26" class="edge">
<title>14-&gt;12</title>
<path fill="none" stroke="#000000" d="M79.7118,-90.0974C85.7248,-77.0741 94.1818,-58.7574 101.0669,-43.8455"/>
<polygon fill="#000000" stroke="#000000" points="104.3085,-45.1739 105.3228,-34.6277 97.9532,-42.2395 104.3085,-45.1739"/>
<text text-anchor="middle" x="100.8913" y="-58.2" font-family="Helvetica,Arial,sans-serif" font-size="14.00" fill="#000000">d</text>
</g>
<!-- 14&#45;&gt;12 -->
<g id="edge27" class="edge">
<title>14-&gt;12</title>
<path fill="none" stroke="#000000" d="M71.9481,-88.4225C72.5604,-77.8966 74.4493,-64.6966 79.5554,-54 82.4978,-47.8362 86.8709,-42.0067 91.4921,-36.9052"/>
<polygon fill="#000000" stroke="#000000" points="94.2341,-39.1107 98.7881,-29.5445 89.2625,-34.1828 94.2341,-39.1107"/>
<text text-anchor="middle" x="82.7223" y="-58.2" font-family="Helvetica,Arial,sans-serif" font-size="14.00" fill="#000000">*</text>
</g>
</g>
</svg>