<svg id="Layer_1" data-name="Layer 1" xmlns="http://www.w3.org/2000/svg" xmlns:xlink="http://www.w3.org/1999/xlink" viewBox="0 0 36 36"><defs><style>.cls-1{clip-path:url(#clip-path);}.cls-2{clip-path:url(#clip-path-2);}.cls-3{clip-path:url(#clip-path-3);}</style><clipPath id="clip-path"><path d="M18,4.09A13.91,13.91,0,1,1,4.09,18,13.91,13.91,0,0,1,18,4.09ZM18,35A17,17,0,1,0,6,30,17,17,0,0,0,18,35Z"/></clipPath><clipPath id="clip-path-2"><rect x="-723.82" y="-837.15" width="1483.64" height="3802.85" fill="#FFFFFF"/></clipPath><clipPath id="clip-path-3"><path d="M26,13.83a1.55,1.55,0,0,0-2.16,0L18,19.75l-5.88-6A1.54,1.54,0,0,0,9.93,16L18,24.18,26.07,16a1.57,1.57,0,0,0,0-2.19Z"/></clipPath></defs><title>down-arrow</title><path d="M18,4.09A13.91,13.91,0,1,1,4.09,18,13.91,13.91,0,0,1,18,4.09ZM18,35A17,17,0,1,0,6,30,17,17,0,0,0,18,35Z"/><g class="cls-1"><rect x="-723.82" y="-837.15" width="1483.64" height="3802.85" fill="#FFFFFF"/><g class="cls-2"><rect x="-4.15" y="-4.15" width="44.3" height="44.3" fill="#FFFFFF"/></g></g><path d="M26,13.83a1.55,1.55,0,0,0-2.16,0L18,19.75l-5.88-6A1.54,1.54,0,0,0,9.93,16L18,24.18,26.07,16a1.57,1.57,0,0,0,0-2.19Z"/><g class="cls-3"><rect x="-723.82" y="-837.15" width="1483.64" height="3802.85" fill="#FFFFFF"/><g class="cls-2"><rect x="4.35" y="8.21" width="27.3" height="21.12" fill="#FFFFFF"/></g></g></svg>
