<?xml version="1.0" standalone="no"?>
<!DOCTYPE svg PUBLIC "-//W3C//DTD SVG 20010904//EN"
 "http://www.w3.org/TR/2001/REC-SVG-20010904/DTD/svg10.dtd">
<svg version="1.0" xmlns="http://www.w3.org/2000/svg"
 width="700.000000pt" height="700.000000pt" viewBox="0 0 700.000000 700.000000"
 preserveAspectRatio="xMidYMid meet">
<metadata>
Created by potrace 1.14, written by Peter Selinger 2001-2017
</metadata>
<g transform="translate(0.000000,700.000000) scale(0.100000,-0.100000)"
fill="#000000" stroke="none">
<path d="M3820 6438 c-74 -50 -189 -128 -255 -173 -66 -45 -203 -138 -305
-207 -325 -220 -883 -599 -1220 -828 -77 -52 -209 -142 -295 -200 l-155 -105
-2 -363 -3 -362 -454 320 c-250 176 -455 320 -457 320 -2 0 -4 -623 -4 -1384
l0 -1384 262 -178 c145 -98 304 -205 353 -239 50 -34 169 -115 265 -180 96
-65 216 -146 265 -180 84 -57 163 -111 645 -438 102 -70 271 -185 377 -257
105 -71 194 -130 198 -130 6 0 161 104 530 355 66 45 212 145 325 221 113 76
315 213 448 304 133 91 322 219 420 285 97 66 247 168 332 226 85 58 191 130
235 160 l80 54 0 362 c0 200 1 363 3 363 4 0 45 -29 503 -352 207 -147 386
-271 398 -277 l21 -12 0 1384 0 1383 -247 168 c-137 92 -369 250 -518 351
-148 101 -394 267 -545 370 -151 103 -358 243 -460 312 -102 69 -268 182 -370
251 -102 69 -192 131 -201 139 -8 7 -20 13 -25 13 -5 0 -70 -41 -144 -92z"/>
</g>
</svg>
