<?xml version="1.0" standalone="no"?>
<!DOCTYPE svg PUBLIC "-//W3C//DTD SVG 20010904//EN"
 "http://www.w3.org/TR/2001/REC-SVG-20010904/DTD/svg10.dtd">
<svg version="1.0" xmlns="http://www.w3.org/2000/svg"
 width="464.000000pt" height="464.000000pt" viewBox="0 0 464.000000 464.000000"
 preserveAspectRatio="xMidYMid meet">
<metadata>
Created by potrace 1.11, written by Peter Selinger 2001-2013
</metadata>
<g transform="translate(0.000000,464.000000) scale(0.100000,-0.100000)"
fill="#000000" stroke="none">
<path d="M2559 4542 c-129 -88 -531 -360 -599 -406 -25 -17 -49 -34 -55 -38
-5 -5 -26 -19 -45 -31 -35 -23 -183 -124 -761 -517 -68 -46 -144 -97 -169
-114 -25 -16 -46 -31 -48 -32 -2 -1 -4 -126 -4 -278 l1 -276 -27 18 c-15 11
-148 104 -297 209 -148 104 -294 206 -323 226 l-52 37 0 -1052 1 -1053 627
-425 c919 -624 937 -636 1056 -717 l109 -75 196 133 c603 409 710 482 1061
721 146 99 327 221 402 271 l137 92 3 277 3 277 285 -201 c157 -110 313 -220
348 -245 l62 -44 0 1053 -1 1053 -92 62 c-50 34 -144 97 -207 140 -63 43 -214
146 -335 228 -121 82 -431 292 -688 467 -258 175 -469 318 -471 318 -1 0 -54
-35 -117 -78z"/>
</g>
</svg>
