<?xml version="1.0"?>
<svg xmlns="http://www.w3.org/2000/svg" xmlns:xlink="http://www.w3.org/1999/xlink" version="1.1" id="Capa_1" x="0px" y="0px" viewBox="0 0 512 512" style="enable-background:new 0 0 512 512;" xml:space="preserve" width="512px" height="512px"><g><g>
	<g>
		<g>
			<circle cx="256" cy="378.5" r="25" data-original="#000000" class="active-path" data-old_color="#898989" fill="#767474"/>
			<path d="M256,0C114.516,0,0,114.497,0,256c0,141.484,114.497,256,256,256c141.484,0,256-114.497,256-256     C512,114.516,397.503,0,256,0z M256,472c-119.377,0-216-96.607-216-216c0-119.377,96.607-216,216-216     c119.377,0,216,96.607,216,216C472,375.377,375.393,472,256,472z" data-original="#000000" class="active-path" data-old_color="#898989" fill="#767474"/>
			<path d="M256,128.5c-44.112,0-80,35.888-80,80c0,11.046,8.954,20,20,20s20-8.954,20-20c0-22.056,17.944-40,40-40     c22.056,0,40,17.944,40,40c0,22.056-17.944,40-40,40c-11.046,0-20,8.954-20,20v50c0,11.046,8.954,20,20,20     c11.046,0,20-8.954,20-20v-32.531c34.466-8.903,60-40.26,60-77.469C336,164.388,300.112,128.5,256,128.5z" data-original="#000000" class="active-path" data-old_color="#898989" fill="#767474"/>
		</g>
	</g>
</g></g> </svg>
