<?xml version="1.0"?>
<svg xmlns="http://www.w3.org/2000/svg" xmlns:xlink="http://www.w3.org/1999/xlink" version="1.1" id="Capa_1" x="0px" y="0px" width="512px" height="512px" viewBox="0 0 561 561" style="enable-background:new 0 0 561 561;" xml:space="preserve" class=""><g><g>
	<g id="content-paste">
		<path d="M459,51H351.9c-10.2-30.6-38.25-51-71.4-51c-33.15,0-61.2,20.4-71.4,51H102c-28.05,0-51,22.95-51,51v408    c0,28.05,22.95,51,51,51h357c28.05,0,51-22.95,51-51V102C510,73.95,487.05,51,459,51z M280.5,51c15.3,0,25.5,10.2,25.5,25.5    S295.8,102,280.5,102S255,91.8,255,76.5S265.2,51,280.5,51z M459,510H102V102h51v76.5h255V102h51V510z" data-original="#000000" class="active-path" data-old_color="#F9F6F6" fill="#FBF9F9"/>
	</g>
</g></g> </svg>
