<?xml version="1.0" encoding="UTF-8" standalone="no"?>
<!-- Created with Inkscape (http://www.inkscape.org/) -->

<svg
   xmlns:dc="http://purl.org/dc/elements/1.1/"
   xmlns:cc="http://creativecommons.org/ns#"
   xmlns:rdf="http://www.w3.org/1999/02/22-rdf-syntax-ns#"
   xmlns:svg="http://www.w3.org/2000/svg"
   xmlns="http://www.w3.org/2000/svg"
   xmlns:xlink="http://www.w3.org/1999/xlink"
   xmlns:sodipodi="http://sodipodi.sourceforge.net/DTD/sodipodi-0.dtd"
   xmlns:inkscape="http://www.inkscape.org/namespaces/inkscape"
   width="483.09915"
   height="288.04358"
   id="svg2"
   version="1.1"
   inkscape:version="0.48.3.1 r9886"
   sodipodi:docname="application-package.svg">
  <defs
     id="defs4">
    <linearGradient
       gradientUnits="userSpaceOnUse"
       gradientTransform="scale(0.874042,1.14411)"
       y2="526.23273"
       x2="514.90332"
       y1="548.23901"
       x1="568.79626"
       id="linearGradient1932"
       xlink:href="#linearGradient580"
       inkscape:collect="always" />
    <linearGradient
       gradientUnits="userSpaceOnUse"
       gradientTransform="scale(0.877703,1.139338)"
       y2="527.86279"
       x2="424.89935"
       y1="598.20807"
       x1="616.72021"
       id="linearGradient1930"
       xlink:href="#linearGradient584"
       inkscape:collect="always" />
    <linearGradient
       gradientUnits="userSpaceOnUse"
       gradientTransform="scale(0.877703,1.139338)"
       y2="514.20892"
       x2="535.56183"
       y1="589.92761"
       x1="592.42822"
       id="linearGradient1928"
       xlink:href="#linearGradient617"
       inkscape:collect="always" />
    <linearGradient
       gradientUnits="userSpaceOnUse"
       gradientTransform="scale(1.051982,0.950586)"
       y2="715.20288"
       x2="377.78207"
       y1="630.57764"
       x1="468.37796"
       id="linearGradient1926"
       xlink:href="#linearGradient590"
       inkscape:collect="always" />
    <linearGradient
       gradientUnits="userSpaceOnUse"
       gradientTransform="scale(1.087711,0.919362)"
       y2="668.37207"
       x2="379.80054"
       y1="705.14551"
       x1="474.28766"
       id="linearGradient1924"
       xlink:href="#linearGradient584"
       inkscape:collect="always" />
    <linearGradient
       gradientUnits="userSpaceOnUse"
       gradientTransform="scale(1.087711,0.919362)"
       y2="666.48077"
       x2="416.47751"
       y1="740.69788"
       x1="472.21622"
       id="linearGradient1922"
       xlink:href="#linearGradient574"
       inkscape:collect="always" />
    <linearGradient
       xlink:href="#linearGradient594"
       id="linearGradient593" />
    <linearGradient
       xlink:href="#linearGradient590"
       id="linearGradient589"
       y2="1"
       x2="-0.145349"
       y1="0.14193501"
       x1="0.773256" />
    <linearGradient
       xlink:href="#linearGradient584"
       id="linearGradient587"
       y2="0.206452"
       x2="-0.658333"
       y1="0.787099"
       x1="0.92500299" />
    <linearGradient
       xlink:href="#linearGradient580"
       id="linearGradient579"
       y2="0.203125"
       x2="0.051020399"
       y1="0.390625"
       x1="0.51020402" />
    <linearGradient
       xlink:href="#linearGradient574"
       id="linearGradient577"
       y2="0.093749993"
       x2="0.25510201"
       y1="0.71875"
       x1="0.724491" />
    <linearGradient
       xlink:href="#linearGradient584"
       id="linearGradient620"
       y2="0.109677"
       x2="-0.053763442"
       y1="0.41935501"
       x1="0.74193501" />
    <linearGradient
       xlink:href="#linearGradient617"
       id="linearGradient616"
       y2="0.093749993"
       x2="0.25510201"
       y1="0.71875"
       x1="0.724491" />
    <linearGradient
       id="linearGradient613">
      <stop
         id="stop614"
         offset="0"
         style="stop-color:#000000;stop-opacity:1.0000;" />
      <stop
         id="stop615"
         offset="1"
         style="stop-color:#ffffff;stop-opacity:1.0000;" />
    </linearGradient>
    <linearGradient
       id="linearGradient617">
      <stop
         id="stop618"
         offset="0"
         style="stop-color:#000fff;stop-opacity:0.8431;" />
      <stop
         id="stop619"
         offset="1"
         style="stop-color:#00879d;stop-opacity:0.6235;" />
    </linearGradient>
    <linearGradient
       id="linearGradient574">
      <stop
         id="stop575"
         offset="0"
         style="stop-color:#d7ffff;stop-opacity:1.0000;" />
      <stop
         id="stop576"
         offset="1"
         style="stop-color:#d2ffff;stop-opacity:0.6235;" />
    </linearGradient>
    <linearGradient
       id="linearGradient580">
      <stop
         id="stop581"
         offset="0"
         style="stop-color:#ffffff;stop-opacity:0;" />
      <stop
         id="stop582"
         offset="1"
         style="stop-color:#ffffff;stop-opacity:1.0000;" />
    </linearGradient>
    <linearGradient
       id="linearGradient584">
      <stop
         id="stop585"
         offset="0"
         style="stop-color:#1e0fff;stop-opacity:1.0000;" />
      <stop
         id="stop586"
         offset="1"
         style="stop-color:#42cfff;stop-opacity:1.0000;" />
    </linearGradient>
    <linearGradient
       id="linearGradient590">
      <stop
         id="stop591"
         offset="0"
         style="stop-color:#6687aa;stop-opacity:1.0000;" />
      <stop
         id="stop592"
         offset="1"
         style="stop-color:#ffffff;stop-opacity:1.0000;" />
    </linearGradient>
    <linearGradient
       id="linearGradient594">
      <stop
         id="stop595"
         offset="0"
         style="stop-color:#d1d2dd;stop-opacity:0.6863;" />
      <stop
         id="stop596"
         offset="1"
         style="stop-color:#f5f5f5;stop-opacity:0.7804;" />
    </linearGradient>
    <linearGradient
       xlink:href="#linearGradient841"
       id="linearGradient1944" />
    <radialGradient
       xlink:href="#linearGradient841"
       r="0.5460667"
       id="radialGradient856"
       fy="3.52"
       fx="0.5411765"
       cy="0.89285713"
       cx="0.5" />
    <linearGradient
       y2="0.796875"
       y1="-0.5625"
       xlink:href="#linearGradient1507"
       x2="0.62222224"
       x1="0.31111112"
       id="linearGradient1556" />
    <linearGradient
       y2="383.76529"
       y1="843.20789"
       xlink:href="#linearGradient1507"
       x2="547.80804"
       x1="201.38963"
       id="linearGradient1506"
       gradientTransform="scale(0.94468882,1.0585496)"
       gradientUnits="userSpaceOnUse" />
    <linearGradient
       y2="418.53635"
       y1="236.12772"
       xlink:href="#linearGradient1501"
       x2="330.88034"
       x1="687.96375"
       id="linearGradient1499"
       gradientTransform="scale(0.98900911,1.011113)"
       gradientUnits="userSpaceOnUse" />
    <linearGradient
       y2="287.73825"
       y1="169.4436"
       xlink:href="#linearGradient1492"
       x2="622.33325"
       x1="741.63898"
       id="linearGradient1497"
       gradientTransform="scale(0.9552926,1.0467997)"
       gradientUnits="userSpaceOnUse" />
    <linearGradient
       y2="689.86005"
       y1="230.07422"
       xlink:href="#linearGradient1492"
       x2="351.7063"
       x1="728.96643"
       id="linearGradient1495"
       gradientTransform="scale(0.95542499,1.0466546)"
       gradientUnits="userSpaceOnUse" />
    <linearGradient
       id="linearGradient1492">
      <stop
         style="stop-color:#dadada;stop-opacity:1.0000000;"
         offset="0.0000000"
         id="stop1493" />
      <stop
         style="stop-color:#f1f1f1;stop-opacity:1.0000000;"
         offset="0.34923077"
         id="stop1496" />
      <stop
         style="stop-color:#f0f0f0;stop-opacity:1.0000000;"
         offset="1.0000000"
         id="stop1494" />
    </linearGradient>
    <linearGradient
       id="linearGradient1501">
      <stop
         style="stop-color:#ffffff;stop-opacity:1.0000000;"
         offset="0.0000000"
         id="stop1502" />
      <stop
         style="stop-color:#ffffff;stop-opacity:0.0000000;"
         offset="1.0000000"
         id="stop1504" />
    </linearGradient>
    <linearGradient
       id="linearGradient1507">
      <stop
         style="stop-color:#000000;stop-opacity:0.095505618;"
         offset="0.0000000"
         id="stop1508" />
      <stop
         style="stop-color:#000000;stop-opacity:0.0000000;"
         offset="1.0000000"
         id="stop1510" />
    </linearGradient>
    <radialGradient
       xlink:href="#linearGradient853"
       r="0.5"
       id="radialGradient861"
       fy="0.29885057"
       fx="0.50704223"
       cy="0.5"
       cx="0.5" />
    <linearGradient
       id="linearGradient853">
      <stop
         style="stop-color:#000000;stop-opacity:0.29752067;"
         offset="0.00000000"
         id="stop854" />
      <stop
         style="stop-color:#000000;stop-opacity:0.00000000;"
         offset="1.0000000"
         id="stop855" />
    </linearGradient>
    <linearGradient
       y2="1.2905406"
       y1="-1.1486486"
       xlink:href="#linearGradient853"
       x2="0.26408452"
       x1="1.4647887"
       id="linearGradient859" />
    <linearGradient
       xlink:href="#linearGradient846"
       id="linearGradient850" />
    <linearGradient
       id="linearGradient846">
      <stop
         style="stop-color:#e7e7e7;stop-opacity:1.0000000;"
         offset="0.00000000"
         id="stop847" />
      <stop
         style="stop-color:#a5a5a5;stop-opacity:1.0000000;"
         offset="1.0000000"
         id="stop848" />
    </linearGradient>
    <linearGradient
       y2="0.049019609"
       y1="1.2647059"
       xlink:href="#linearGradient846"
       x2="0.5714286"
       x1="0.64285713"
       id="linearGradient858" />
    <linearGradient
       y2="0.35555556"
       y1="0.32222223"
       xlink:href="#linearGradient846"
       x2="0.80985916"
       x1="0.39788732"
       id="linearGradient851" />
    <linearGradient
       y2="-0.74324322"
       y1="0.8108108"
       xlink:href="#linearGradient1290"
       x2="0.5"
       x1="0.47535211"
       id="linearGradient860" />
    <linearGradient
       id="linearGradient1290">
      <stop
         style="stop-color:#b2a269;stop-opacity:1.0000000;"
         offset="0.0000000"
         id="stop1291" />
      <stop
         style="stop-color:#6d5b18;stop-opacity:1.0000000;"
         offset="1.0000000"
         id="stop1292" />
    </linearGradient>
    <linearGradient
       id="linearGradient841">
      <stop
         style="stop-color:#ffffff;stop-opacity:1.0000000;"
         offset="0.00000000"
         id="stop842" />
      <stop
         style="stop-color:#ffffff;stop-opacity:0.00000000;"
         offset="1.0000000"
         id="stop843" />
    </linearGradient>
    <radialGradient
       xlink:href="#linearGradient853"
       r="0.5"
       id="radialGradient864"
       fy="0.14942528"
       fx="0.5"
       cy="0.5"
       cx="0.5" />
    <linearGradient
       y2="0.46354166"
       y1="0.43229166"
       xlink:href="#linearGradient846"
       x2="1.2288733"
       x1="0.01056338"
       id="linearGradient849" />
    <linearGradient
       y2="0.46568626"
       y1="0.38235295"
       xlink:href="#linearGradient853"
       x2="0.594697"
       x1="-0.22348484"
       id="linearGradient840" />
    <linearGradient
       y2="0.50490195"
       y1="0.49019608"
       xlink:href="#linearGradient841"
       x2="0.10833333"
       x1="1.3833333"
       id="linearGradient845" />
    <linearGradient
       xlink:href="#linearGradient841"
       id="linearGradient844" />
    <linearGradient
       y2="0.50735295"
       y1="-1.0294118"
       xlink:href="#linearGradient841"
       x2="0.63483149"
       x1="0.56179774"
       id="linearGradient852" />
    <linearGradient
       inkscape:collect="always"
       xlink:href="#linearGradient1507"
       id="linearGradient4640"
       x1="207.86864"
       y1="836.03088"
       x2="544.78693"
       y2="389.18799"
       gradientTransform="scale(0.94318133,1.0602415)"
       gradientUnits="userSpaceOnUse" />
    <linearGradient
       inkscape:collect="always"
       xlink:href="#linearGradient1507"
       id="linearGradient4642"
       x1="204.63277"
       y1="839.61707"
       x2="546.29553"
       y2="386.48169"
       gradientTransform="scale(0.94394176,1.0593874)"
       gradientUnits="userSpaceOnUse" />
    <linearGradient
       inkscape:collect="always"
       xlink:href="#linearGradient1507"
       id="linearGradient4644"
       x1="201.38963"
       y1="843.20789"
       x2="547.80804"
       y2="383.76529"
       gradientTransform="scale(0.94468882,1.0585496)"
       gradientUnits="userSpaceOnUse" />
  </defs>
  <sodipodi:namedview
     id="base"
     pagecolor="#ffffff"
     bordercolor="#666666"
     borderopacity="1.0"
     inkscape:pageopacity="0.0"
     inkscape:pageshadow="2"
     inkscape:zoom="0.98994949"
     inkscape:cx="215.22214"
     inkscape:cy="38.421265"
     inkscape:document-units="px"
     inkscape:current-layer="layer1"
     showgrid="false"
     inkscape:snap-bbox="false"
     inkscape:window-width="1918"
     inkscape:window-height="1198"
     inkscape:window-x="1920"
     inkscape:window-y="0"
     inkscape:window-maximized="0"
     fit-margin-top="3"
     fit-margin-left="3"
     fit-margin-right="3"
     fit-margin-bottom="3" />
  <metadata
     id="metadata7">
    <rdf:RDF>
      <cc:Work
         rdf:about="">
        <dc:format>image/svg+xml</dc:format>
        <dc:type
           rdf:resource="http://purl.org/dc/dcmitype/StillImage" />
        <dc:title></dc:title>
      </cc:Work>
    </rdf:RDF>
  </metadata>
  <g
     inkscape:label="Layer 1"
     inkscape:groupmode="layer"
     id="layer1"
     transform="translate(-65.878675,-103.04753)">
    <g
       id="g994"
       transform="translate(67.428574,105.50504)">
      <g
         transform="matrix(0.808772,0,0,0.808772,-1.387465,-1.618687)"
         id="g1909">
        <path
           d="M 487.0393,710.4615 C 464.2628,698.6033 441.035,686.9239 421.2698,675.7201 l 8.1547,-8.3064 -7.7989,-9.2495 51.3523,-54.4501 c 24.7528,11.2094 49.7235,24.8471 75.0304,36.479 l -60.969,70.2684 z"
           transform="matrix(1.130927,0,0,1.130927,-462.9989,-645.2557)"
           style="font-size:12px;fill:#ffffff;fill-opacity:1;fill-rule:evenodd;stroke:#ffffff;stroke-width:2.424371;stroke-linejoin:bevel;stroke-opacity:1"
           id="path993"
           inkscape:connector-curvature="0" />
        <path
           d="m 417.5,662.3621 71.25,23.75 30,-71.25 -65,-20 -36.25,67.5 z"
           transform="matrix(1.130927,0,0,1.130927,-462.9989,-645.2557)"
           style="font-size:12px;fill:#ffffff;fill-opacity:1;fill-rule:evenodd;stroke-width:2.5;stroke-linejoin:bevel"
           id="path992"
           inkscape:connector-curvature="0" />
        <path
           d="m 413.75,654.8621 71.25,23.75 30,-71.25 -65,-20 -36.25,67.5 z"
           transform="matrix(1.130927,0,0,1.130927,-462.9989,-645.2557)"
           style="font-size:12px;fill:#ffffff;fill-rule:evenodd;stroke:#ffffff;stroke-width:2.5;stroke-linejoin:bevel;stroke-opacity:1"
           id="path991"
           inkscape:connector-curvature="0" />
        <path
           d="M 488.0365,709.0731 C 471.3234,688.9022 457.492,671.0365 444.8131,648.5603 l 19.5946,-20.1709 0.5763,-16.713 34.5787,-36.8839 c 13.063,23.8209 29.0078,45.9128 47.8339,66.2758 l -59.3601,68.0048 z"
           transform="matrix(1.130927,0,0,1.130927,-462.9989,-645.2557)"
           style="font-size:12px;fill:#ffffff;fill-opacity:1;fill-rule:evenodd;stroke:#ffffff;stroke-width:3.75;stroke-linejoin:bevel;stroke-opacity:1"
           id="path990"
           inkscape:connector-curvature="0" />
        <path
           d="M 487.0393,710.4615 C 464.2628,698.6033 441.035,686.9239 421.2698,675.7201 l 8.1547,-8.3064 -7.7989,-9.2495 51.3523,-54.4501 c 24.7528,11.2094 49.7235,24.8471 75.0304,36.479 l -60.969,70.2684 z"
           transform="matrix(1.130927,0,0,1.130927,-462.9989,-645.2557)"
           style="font-size:12px;fill:url(#linearGradient1922);fill-rule:evenodd;stroke:url(#linearGradient1924);stroke-width:2.424371;stroke-linejoin:bevel"
           id="path608"
           inkscape:connector-curvature="0" />
        <path
           d="m 417.5,662.3621 71.25,23.75 30,-71.25 -65,-20 -36.25,67.5 z"
           transform="matrix(1.130927,0,0,1.130927,-462.9989,-645.2557)"
           style="font-size:12px;fill-opacity:0.15750002;fill-rule:evenodd;stroke-width:2.5;stroke-linejoin:bevel"
           id="path609"
           inkscape:connector-curvature="0" />
        <path
           d="m 413.75,654.8621 71.25,23.75 30,-71.25 -65,-20 -36.25,67.5 z"
           transform="matrix(1.130927,0,0,1.130927,-462.9989,-645.2557)"
           style="font-size:12px;fill:#ffffff;fill-rule:evenodd;stroke:url(#linearGradient1926);stroke-width:2.5;stroke-linejoin:bevel"
           id="path610"
           inkscape:connector-curvature="0" />
        <path
           d="M 488.0365,709.0731 C 471.3234,688.9022 457.492,671.0365 444.8131,648.5603 l 19.5946,-20.1709 0.5763,-16.713 34.5787,-36.8839 c 13.063,23.8209 29.0078,45.9128 47.8339,66.2758 l -59.3601,68.0048 z"
           transform="matrix(1.130927,0,0,1.130927,-462.9989,-645.2557)"
           style="font-size:12px;fill:url(#linearGradient1928);fill-rule:evenodd;stroke:url(#linearGradient1930);stroke-width:3.75;stroke-linejoin:bevel"
           id="path611"
           inkscape:connector-curvature="0" />
        <path
           d="M 488.0365,709.0731 C 471.3234,688.9022 457.492,671.0365 444.8131,648.5603 l 19.5946,-20.1709 0.5763,-16.713 34.5787,-36.8839 c 13.063,23.8209 29.0078,45.9128 47.8339,66.2758 l -59.3601,68.0048 z"
           transform="matrix(1.130927,0,0,1.130927,-462.9989,-645.2557)"
           style="font-size:12px;fill:url(#linearGradient1932);fill-rule:evenodd;stroke-width:2.5;stroke-linejoin:bevel"
           id="path613"
           inkscape:connector-curvature="0" />
        <path
           d="m 451.7519,641.5156 c 41.6229,12.7979 64.2283,4.0666 79.6576,-16.5057 l -19.0174,-26.5525 -13.2763,-21.8879 -33.0112,35.523 -0.3588,15.4292 -13.9939,13.9939 z"
           transform="matrix(1.130927,0,0,1.130927,-462.9989,-645.2557)"
           style="font-size:12px;fill:#ffffff;fill-opacity:0.25979997;fill-rule:evenodd"
           id="path614"
           inkscape:connector-curvature="0" />
        <path
           d="m 321.4302,193.0425 16.379,18.719 -95.9344,109.9737 -21.0588,-24.1787 -20.2788,-28.0784 -20.2787,-31.978 -7.7997,-14.8192 30.34525,-32.93205 0.78572,-27.91017 55.44403,-60.05078 3.8997,2.34 -3.1196,0.7798 -53.21095,58.10379 -0.60605,26.13131 -31.1982,32.7581 11.6994,21.0587 17.9389,29.6385 18.719,24.1785 98.2742,-103.7341 z"
           style="font-size:12px;fill:#ffffff;fill-rule:evenodd"
           id="path615"
           transform="matrix(0.673307,0,0,0.673307,-74.19154,-62.39847)"
           sodipodi:nodetypes="ccccccccccccccccccc"
           inkscape:connector-curvature="0" />
      </g>
    </g>
    <text
       xml:space="preserve"
       style="font-size:40px;font-style:normal;font-weight:normal;line-height:125%;letter-spacing:0px;word-spacing:0px;fill:#000000;fill-opacity:1;stroke:none;font-family:Sans"
       x="211.42857"
       y="179.98355"
       id="text4462"
       sodipodi:linespacing="125%"><tspan
         sodipodi:role="line"
         x="211.42857"
         y="179.98355"
         id="tspan4842">demo_app</tspan></text>
    <path
       style="fill:none;stroke:#000000;stroke-width:1px;stroke-linecap:butt;stroke-linejoin:miter;stroke-opacity:1"
       d="m 134.28572,233.21933 0,94.28571 65.36765,0.17332"
       id="path4470"
       inkscape:connector-curvature="0"
       sodipodi:nodetypes="ccc" />
    <g
       id="g4624"
       transform="matrix(0.64732311,0,0,0.76480132,189.85074,268.30839)">
      <path
         style="fill:#ffffff;fill-rule:evenodd;stroke-width:0.42649043;stroke-opacity:0.3647799"
         sodipodi:nodetypes="cccccccccccccccc"
         id="path930"
         d="m 17.159384,6.3292894 0,36.7392366 0,36.739242 0,36.739232 0,36.73924 33.52764,0 33.52764,0 33.527636,0 33.52764,0 0,-36.73924 0,-36.739232 0,-36.739242 -33.52764,-36.7392366 -33.527636,0 -33.52764,0 -33.52764,0 z"
         inkscape:connector-curvature="0" />
      <g
         transform="matrix(0.304171,0,0,0.297572,-36.70399,-112.488)"
         style="fill:url(#linearGradient1506)"
         id="g1552">
        <path
           style="fill:url(#linearGradient4640);fill-opacity:0.75;fill-rule:evenodd;stroke-width:0.95407495pt"
           sodipodi:nodetypes="cccccccccccccccc"
           id="path1505"
           d="m 173.35959,408.8126 0,122.261 0,122.261 0,122.261 0,122.261 108.76228,0 108.7623,0 108.76229,0 108.76228,0 0,-122.261 0,-122.261 0,-122.261 -108.76228,-122.261 -108.76229,0 -108.7623,0 -108.76228,0 z"
           inkscape:connector-curvature="0" />
        <path
           style="fill:url(#linearGradient4642);fill-opacity:0.75;fill-rule:evenodd;stroke-width:0.95407495pt"
           id="path1538"
           d="m 170.125,407.1875 c 0,164.63542 0,329.27083 0,493.90625 147.17708,0 294.35417,0 441.53125,0 0,-123.76042 0,-247.52083 0,-371.28125 -36.84707,-41.42272 -73.68021,-82.85915 -110.5625,-124.25 -110.32292,0 -220.64583,0 -330.96875,0 0,0.33333 0,1.41667 0,1.625 z"
           inkscape:connector-curvature="0" />
        <path
           style="fill:url(#linearGradient4644);fill-opacity:0.75;fill-rule:evenodd;stroke-width:0.95407495pt"
           id="path1543"
           d="m 166.875,403.9375 c 0,166.80208 0,333.60417 0,500.40625 149.34375,0 298.6875,0 448.03125,0 0,-125.26042 0,-250.52083 0,-375.78125 -37.45108,-42.08952 -74.88871,-84.19233 -112.375,-126.25 -111.88542,0 -223.77083,0 -335.65625,0 0,0.33333 0,1.41667 0,1.625 z"
           inkscape:connector-curvature="0" />
      </g>
      <path
         transform="matrix(0.296689,0,0,0.296689,-71.19601,-34.05825)"
         style="fill:url(#linearGradient1495);fill-opacity:1;fill-rule:evenodd;stroke:#000000;stroke-width:1.4375;stroke-opacity:0.3647799"
         sodipodi:nodetypes="cccccccccccccccc"
         id="rect900"
         d="m 297.99034,136.74154 0,123.8308 0,123.83081 0,123.8308 0,123.8308 113.006,0 113.00601,0 113.006,0 113.006,0 0,-123.8308 0,-123.8308 0,-123.83081 -113.006,-123.8308 -113.006,0 -113.00601,0 -113.006,0 z"
         inkscape:connector-curvature="0" />
      <path
         transform="matrix(0.296689,0,0,0.296689,-71.19601,-34.05825)"
         style="fill:url(#linearGradient1499);fill-opacity:1;fill-rule:evenodd;stroke-width:1pt"
         sodipodi:nodetypes="cccczc"
         id="path1500"
         d="m 301.30655,174.90867 -2.03586,453.99567 443.8164,0 0.25448,-112.22651 C 733.41677,520.49506 633.15091,378.49417 506.9279,384.60173 380.59029,390.71484 413.27857,193.23136 301.30655,174.90867 z"
         inkscape:connector-curvature="0" />
      <rect
         y="-137.55873"
         x="26.448841"
         width="106.28972"
         transform="scale(1,-1)"
         style="fill-opacity:0.43396229;fill-rule:evenodd;stroke-width:1pt"
         id="rect1535"
         height="4.4854884" />
      <rect
         y="-116.53443"
         x="26.448841"
         width="82.906044"
         transform="scale(1,-1)"
         style="fill-opacity:0.43396229;fill-rule:evenodd;stroke-width:1pt"
         id="rect1536"
         height="4.4854884" />
      <rect
         y="-95.510132"
         x="26.448841"
         width="99.094742"
         transform="scale(1,-1)"
         style="fill-opacity:0.43396229;fill-rule:evenodd;stroke-width:1pt"
         id="rect1537"
         height="4.4854884" />
      <rect
         y="-74.485855"
         x="26.448841"
         width="55.025513"
         transform="scale(1,-1)"
         style="fill-opacity:0.43396229;fill-rule:evenodd;stroke-width:1pt"
         id="rect1538"
         height="4.4854884" />
      <rect
         y="-53.461544"
         x="26.448841"
         width="85.604164"
         transform="scale(1,-1)"
         style="fill-opacity:0.43396229;fill-rule:evenodd;stroke-width:1pt"
         id="rect1539"
         height="4.4854884" />
      <path
         transform="matrix(0.296689,0,0,0.296689,-71.19601,-34.05825)"
         style="fill:url(#linearGradient1497);fill-opacity:1;fill-rule:evenodd;stroke-width:0.95407495pt"
         sodipodi:nodetypes="cccc"
         id="path906"
         d="m 750.01435,260.57234 c -34.06975,-10.08632 -78.21647,-8.6561 -111.56643,-2.90718 5.75826,-36.94888 6.47805,-83.25495 -1.43957,-120.92362 l 113.006,123.8308 z"
         inkscape:connector-curvature="0" />
      <rect
         y="-32.190559"
         x="26.448904"
         width="55.025513"
         transform="scale(1,-1)"
         style="fill-opacity:0.43396229;fill-rule:evenodd;stroke-width:1pt"
         id="rect1541"
         height="4.4854884" />
    </g>
    <text
       xml:space="preserve"
       style="font-size:40px;font-style:normal;font-weight:normal;line-height:125%;letter-spacing:0px;word-spacing:0px;fill:#000000;fill-opacity:1;stroke:none;font-family:Sans"
       x="299.00516"
       y="344.24524"
       id="text4646"
       sodipodi:linespacing="125%"><tspan
         sodipodi:role="line"
         id="tspan4648"
         x="299.00516"
         y="344.24524">services.xml</tspan></text>
  </g>
</svg>
